PathFileType	4	(x/y/z)	S04_PSF_T02.trc
DataRate	CameraRate	NumFrames	NumMarkers	Units	OrigDataRate	OrigDataStartFrame	OrigNumFrames
240	240	11	51	mm	240	54	430
Frame#	Time	Sternum			R.Acromium			L.Acromium			Top.Head			R.ASIS			L.ASIS			R.PSIS			L.PSIS			R.Great.Tro			L.Great.Tro			R.Iliac.Crest			L.Iliac.Crest			V.Sacral			R.Thigh.Upper.Post			R.Thigh.Lower.Ant			R.Thigh.Lower.Post			R.Thigh.Upper.Ant			R.Knee.Lat			R.Knee.Med			R.Shank.Upper.Post			R.Shank.Lower.Ant			R.Shank.Lower.Post			R.Shank.Upper.Ant			R.Ankle.Lat			R.Ankle.Med			R.Heel.Upper			R.Heel.Med			R.Heel.Lat			R.Toe.Lat			R.Toe.Med			R.Toe.Tip			L.Thigh.Upper.Post			L.Thigh.Lower.Ant			L.Thigh.Lower.Post			L.Thigh.Upper.Ant			L.Knee.Lat			L.Knee.Med			L.Shank.Upper.Post			L.Shank.Lower.Ant			L.Shank.Lower.Post			L.Shank.Upper.Ant			L.Ankle.Lat			L.Ankle.Med			L.Heel.Upper			L.Heel.Med			L.Heel.Lat			L.Toe.Lat			L.Toe.Med			L.Toe.Tip			Cervical.Spine			Back			
		X1	Y1	Z1	X2	Y2	Z2	X3	Y3	Z3	X4	Y4	Z4	X5	Y5	Z5	X6	Y6	Z6	X7	Y7	Z7	X8	Y8	Z8	X9	Y9	Z9	X10	Y10	Z10	X11	Y11	Z11	X12	Y12	Z12	X13	Y13	Z13	X14	Y14	Z14	X15	Y15	Z15	X16	Y16	Z16	X17	Y17	Z17	X18	Y18	Z18	X19	Y19	Z19	X20	Y20	Z20	X21	Y21	Z21	X22	Y22	Z22	X23	Y23	Z23	X24	Y24	Z24	X25	Y25	Z25	X26	Y26	Z26	X27	Y27	Z27	X28	Y28	Z28	X29	Y29	Z29	X30	Y30	Z30	X31	Y31	Z31	X32	Y32	Z32	X33	Y33	Z33	X34	Y34	Z34	X35	Y35	Z35	X36	Y36	Z36	X37	Y37	Z37	X38	Y38	Z38	X39	Y39	Z39	X40	Y40	Z40	X41	Y41	Z41	X42	Y42	Z42	X43	Y43	Z43	X44	Y44	Z44	X45	Y45	Z45	X46	Y46	Z46	X47	Y47	Z47	X48	Y48	Z48	X49	Y49	Z49	X50	Y50	Z50	X51	Y51	Z51	

54	0.22083	-1263.4	1267.2	243.95	-1389.3	1498.1	422.97	-1408.9	1479.3	73.44	-1350.5	1823	230.45	-1295	976.96	390.37	NaN	NaN	NaN	NaN	NaN	NaN	-1493.5	1028.1	196.5	-1397.5	894.1	443.23	-1381.2	923.5	66.712	-1386	1076.7	428.68	-1385.7	1083.6	93.214	-1520.5	982.83	234.99	-1383.7	634.43	430.86	-1303.1	551.64	408.69	-1381.5	544.75	416.79	-1298.5	661.53	426.97	-1369.4	476.76	410.6	-1373.9	476.98	279.52	-1579.9	392.44	402.73	-1609.5	284.93	375.52	-1635.3	351.11	388.86	NaN	NaN	NaN	-1728.9	277.23	371.09	-1694.9	260.87	287.02	-1780.8	313.06	311.74	-1794.8	290.87	279.74	-1812	294.46	341.93	-1740.5	143.39	397.75	-1699.6	114.07	285.49	-1653.1	71.423	335.99	-1338.2	683.79	78.24	-1235.3	612	91.367	-1307.8	601.13	95.404	-1270.4	693.63	71.925	-1245.4	518	107.78	-1249.7	509.31	230.58	-1314.1	333.39	102.78	-1241	250.98	113.5	-1306.7	255.07	113.09	-1251.7	326.4	104.16	-1262.8	98.914	132.38	-1261	110.06	223.92	-1336.7	69.631	174.79	-1332	46.551	209.19	-1332.5	42.006	147.92	-1146.9	42.522	119.18	-1122	51.774	236.16	-1062.2	63.433	190	-1448.2	1544.8	253.95	-1528	1285.5	243.53
55	0.225	-1257.8	1268.1	243.99	-1383.9	1499.1	422.79	-1403.1	1480.3	73.24	-1344.6	1823.9	230.21	-1289.5	978.11	390.14	NaN	NaN	NaN	NaN	NaN	NaN	-1488.9	1029.1	196.62	-1391.5	895.16	443.2	-1376.3	924.21	66.688	-1380.6	1077.8	428.49	-1380.3	1084.5	93.069	-1515.2	983.75	235.06	-1374.4	635.38	430.89	-1292.9	553.57	408.41	-1371.2	545.73	416.81	-1289.6	663.55	426.73	-1358.3	478	410.47	-1363.2	478.38	279.24	-1568.7	393.6	402.26	-1597.2	286.53	374.58	-1624.1	352.13	388.45	NaN	NaN	NaN	-1717.4	278.14	370.64	-1683.3	261.35	286.77	-1769.5	313.16	310.91	-1783.4	290.53	279.12	-1800.7	294.71	341.18	-1728.7	144.8	398.58	-1687.2	114.41	286.65	-1640.1	72.621	337.59	-1334.7	684.39	78.339	-1232.4	611.87	91.373	-1304.9	601.53	95.468	-1266.9	693.73	71.93	-1243.1	517.87	107.84	-1247.3	509.31	230.66	-1312.8	333.75	103.06	-1240.3	250.87	113.64	-1305.8	255.33	113.37	-1250.6	326.33	104.3	-1262.7	99.094	132.69	-1260.8	110.1	224.22	-1336.6	69.75	174.97	-1332	46.587	209.3	-1332.4	42.224	148.01	-1146.8	42.534	119.17	-1121.8	51.353	236.24	-1062.1	62.942	190.05	-1442.6	1545.8	253.69	-1522.5	1286.5	243.12
56	0.22917	-1252.2	1269	244.03	-1378.6	1500.1	422.62	-1397.2	1481.3	73.051	-1338.7	1824.8	229.99	-1284	979.28	389.91	NaN	NaN	NaN	NaN	NaN	NaN	-1484.1	1030	196.74	-1385.5	896.26	443.19	-1371.4	924.92	66.682	-1375.2	1078.8	428.32	-1375	1085.4	92.933	-1509.8	984.69	235.16	-1365.2	636.4	430.94	-1282.7	555.59	408.13	-1360.8	546.78	416.85	-1280.6	665.63	426.52	-1347.2	479.32	410.35	-1352.7	479.86	278.97	-1557.5	394.62	401.78	-1584.8	287.95	373.65	-1612.7	352.94	388.04	NaN	NaN	NaN	-1705.8	278.73	370.19	-1671.6	261.58	286.51	-1758.1	312.89	310.1	-1771.9	289.8	278.51	-1789.3	294.54	340.43	-1716.5	145.87	399.37	-1674.5	114.52	287.74	-1626.8	73.614	339.1	-1331.3	685	78.444	-1229.5	611.73	91.382	-1302	601.92	95.533	-1263.5	693.84	71.944	-1240.9	517.76	107.9	-1245	509.3	230.75	-1311.5	334.09	103.34	-1239.5	250.76	113.77	-1304.8	255.61	113.64	-1249.6	326.27	104.45	-1262.6	99.273	132.99	-1260.6	110.13	224.51	-1336.6	69.87	175.15	-1331.9	46.626	209.4	-1332.3	42.443	148.09	-1146.8	42.552	119.17	-1121.7	50.956	236.33	-1062	62.481	190.1	-1437	1546.9	253.44	-1517	1287.6	242.7
57	0.23333	-1246.6	1270	244.09	-1373.3	1501	422.45	-1391.4	1482.3	72.872	-1332.8	1825.7	229.79	-1278.3	980.45	389.67	NaN	NaN	NaN	NaN	NaN	NaN	-1479.1	1031	196.89	-1379.5	897.39	443.19	-1366.6	925.64	66.695	-1369.7	1079.9	428.16	-1369.6	1086.3	92.806	-1504.5	985.64	235.3	-1356	637.5	431.02	-1272.7	557.68	407.85	-1350.5	547.9	416.93	-1271.8	667.77	426.34	-1336.2	480.71	410.23	-1342.2	481.42	278.72	-1546.4	395.5	401.3	-1572.4	289.19	372.76	-1601.3	353.55	387.63	NaN	NaN	NaN	-1694	278.98	369.75	-1659.7	261.55	286.25	-1746.7	312.25	309.32	-1760.2	288.69	277.91	-1777.7	293.96	339.71	-1704	146.58	400.11	-1661.5	114.39	288.77	-1613.2	74.399	340.53	-1328	685.61	78.555	-1226.7	611.6	91.393	-1299.3	602.33	95.599	-1260.1	693.93	71.964	-1238.8	517.65	107.97	-1242.8	509.3	230.83	-1310.3	334.42	103.64	-1238.8	250.66	113.89	-1303.8	255.91	113.9	-1248.6	326.22	104.59	-1262.4	99.451	133.29	-1260.5	110.17	224.8	-1336.5	69.992	175.32	-1331.9	46.667	209.5	-1332.2	42.662	148.18	-1146.7	42.572	119.18	-1121.6	50.581	236.4	-1061.9	62.049	190.13	-1431.4	1547.9	253.19	-1511.6	1288.7	242.29
58	0.2375	-1241	1270.9	244.16	-1368	1502	422.29	-1385.6	1483.3	72.703	-1327	1826.7	229.62	-1272.7	981.64	389.43	NaN	NaN	NaN	NaN	NaN	NaN	-1474	1032	197.04	-1373.6	898.55	443.22	-1361.8	926.36	66.725	-1364.3	1081	428.02	-1364.3	1087.3	92.689	-1499.2	986.62	235.46	-1346.9	638.65	431.13	-1262.7	559.84	407.58	-1340.2	549.08	417.04	-1263	669.96	426.19	-1325.3	482.16	410.12	-1331.8	483.05	278.5	-1535.2	396.22	400.83	-1559.8	290.23	371.93	-1589.9	353.95	387.21	NaN	NaN	NaN	-1682	278.92	369.34	-1647.6	261.27	285.99	-1735.2	311.26	308.58	-1748.5	287.24	277.35	-1765.9	292.98	339.01	-1691.1	146.94	400.79	-1648.2	114.03	289.72	-1599.3	74.979	341.86	-1324.7	686.23	78.671	-1224	611.46	91.404	-1296.6	602.74	95.664	-1256.9	694.03	71.989	-1236.7	517.55	108.04	-1240.6	509.3	230.92	-1309.1	334.73	103.94	-1238.2	250.58	114	-1302.9	256.22	114.13	-1247.7	326.18	104.72	-1262.3	99.628	133.57	-1260.3	110.2	225.07	-1336.5	70.118	175.49	-1331.9	46.713	209.6	-1332.1	42.88	148.26	-1146.7	42.595	119.18	-1121.5	50.228	236.48	-1061.8	61.643	190.16	-1425.9	1548.9	252.95	-1506.1	1289.7	241.89
59	0.24167	-1235.4	1271.9	244.23	-1362.8	1503	422.13	-1379.8	1484.3	72.544	-1321.1	1827.6	229.48	-1267	982.84	389.19	NaN	NaN	NaN	NaN	NaN	NaN	-1468.8	1033.1	197.22	-1367.7	899.74	443.27	-1357	927.09	66.772	-1358.8	1082.1	427.89	-1359	1088.2	92.581	-1493.9	987.6	235.65	-1337.8	639.86	431.28	-1252.8	562.07	407.32	-1330	550.33	417.17	-1254.3	672.2	426.08	-1314.4	483.67	410.02	-1321.5	484.73	278.32	-1524	396.78	400.37	-1547.3	291.05	371.18	-1578.4	354.15	386.81	NaN	NaN	NaN	-1669.9	278.53	368.95	-1635.5	260.74	285.73	-1723.6	309.91	307.9	-1736.6	285.44	276.8	-1754.1	291.62	338.35	-1677.9	146.95	401.42	-1634.6	113.47	290.58	-1585.1	75.357	343.09	-1321.5	686.85	78.791	-1221.4	611.33	91.413	-1294	603.16	95.728	-1253.7	694.12	72.017	-1234.8	517.47	108.11	-1238.6	509.29	231.01	-1308.1	335.02	104.25	-1237.6	250.5	114.1	-1302	256.54	114.34	-1246.8	326.16	104.84	-1262.2	99.803	133.85	-1260.2	110.24	225.33	-1336.4	70.246	175.66	-1331.8	46.764	209.7	-1332.1	43.096	148.34	-1146.6	42.618	119.19	-1121.4	49.897	236.55	-1061.7	61.262	190.19	-1420.3	1549.9	252.71	-1500.7	1290.8	241.49
60	0.24583	-1229.9	1272.8	244.31	-1357.5	1504	421.97	-1374	1485.3	72.394	-1315.3	1828.5	229.36	-1261.3	984.03	388.95	NaN	NaN	NaN	NaN	NaN	NaN	-1463.5	1034.1	197.41	-1361.7	900.94	443.33	-1352.2	927.81	66.833	-1353.4	1083.2	427.77	-1353.7	1089.1	92.484	-1488.6	988.6	235.87	-1328.7	641.12	431.45	-1243	564.34	407.07	-1319.8	551.62	417.34	-1245.7	674.47	425.99	-1303.6	485.24	409.93	-1311.2	486.45	278.17	-1512.8	397.19	399.93	-1534.6	291.65	370.51	-1566.9	354.14	386.43	NaN	NaN	NaN	-1657.7	277.84	368.59	-1623.2	259.98	285.47	-1711.9	308.22	307.27	-1724.5	283.31	276.3	-1742.1	289.86	337.75	-1664.3	146.62	402	-1620.7	112.72	291.37	-1570.7	75.541	344.23	-1318.4	687.48	78.916	-1218.8	611.19	91.421	-1291.5	603.59	95.79	-1250.6	694.22	72.046	-1232.9	517.4	108.17	-1236.6	509.29	231.09	-1307.2	335.29	104.57	-1237	250.44	114.19	-1301.1	256.88	114.53	-1246	326.14	104.96	-1262.1	99.975	134.11	-1260	110.28	225.58	-1336.4	70.378	175.82	-1331.8	46.82	209.79	-1332	43.31	148.41	-1146.6	42.642	119.2	-1121.3	49.588	236.61	-1061.6	60.906	190.21	-1414.7	1550.9	252.48	-1495.3	1291.8	241.1
61	0.25	-1224.3	1273.7	244.4	-1352.3	1504.9	421.81	-1368.2	1486.3	72.253	-1309.4	1829.4	229.27	-1255.6	985.23	388.7	NaN	NaN	NaN	NaN	NaN	NaN	-1458.2	1035.1	197.61	-1355.8	902.15	443.41	-1347.5	928.53	66.909	-1347.9	1084.3	427.67	-1348.4	1090	92.395	-1483.3	989.59	236.12	-1319.7	642.41	431.64	-1233.3	566.66	406.83	-1309.7	552.97	417.53	-1237.2	676.76	425.94	-1292.9	486.86	409.85	-1300.9	488.2	278.06	-1501.6	397.45	399.51	-1522	292.03	369.93	-1555.3	353.92	386.07	NaN	NaN	NaN	-1645.3	276.83	368.28	-1610.8	259	285.22	-1700.1	306.19	306.71	-1712.4	280.86	275.82	-1730	287.74	337.19	-1650.5	145.95	402.52	-1606.5	111.77	292.07	-1556	75.541	345.27	-1315.3	688.11	79.047	-1216.3	611.06	91.426	-1289	604.02	95.852	-1247.5	694.31	72.075	-1231.1	517.35	108.24	-1234.7	509.3	231.17	-1306.3	335.55	104.9	-1236.4	250.39	114.27	-1300.2	257.23	114.7	-1245.2	326.14	105.07	-1262	100.14	134.36	-1259.9	110.32	225.82	-1336.3	70.514	175.97	-1331.8	46.883	209.88	-1331.9	43.52	148.48	-1146.5	42.664	119.22	-1121.2	49.299	236.67	-1061.5	60.574	190.22	-1409.2	1551.9	252.25	-1489.9	1292.8	240.71
62	0.25417	-1218.8	1274.7	244.5	-1347	1505.9	421.66	-1362.4	1487.3	72.121	-1303.6	1830.3	229.2	-1249.9	986.41	388.46	NaN	NaN	NaN	NaN	NaN	NaN	-1452.8	1036.2	197.84	-1349.9	903.37	443.51	-1342.9	929.25	66.998	-1342.5	1085.4	427.58	-1343.1	1090.9	92.317	-1478.1	990.59	236.39	-1310.7	643.74	431.87	-1223.7	569.02	406.62	-1299.6	554.36	417.74	-1228.8	679.08	425.92	-1282.3	488.53	409.79	-1290.6	489.97	278	-1490.4	397.55	399.13	-1509.4	292.2	369.45	-1543.7	353.51	385.73	NaN	NaN	NaN	-1632.8	275.54	368	-1598.3	257.8	284.98	-1688.2	303.86	306.21	-1700.1	278.11	275.39	-1717.8	285.25	336.71	-1636.3	144.96	402.99	-1592	110.65	292.7	-1541	75.367	346.2	-1312.3	688.75	79.184	-1213.8	610.93	91.429	-1286.6	604.46	95.914	-1244.5	694.4	72.104	-1229.3	517.3	108.3	-1232.9	509.3	231.24	-1305.5	335.78	105.22	-1235.9	250.36	114.34	-1299.3	257.58	114.84	-1244.4	326.16	105.17	-1261.9	100.31	134.6	-1259.8	110.36	226.04	-1336.2	70.653	176.11	-1331.7	46.953	209.96	-1331.8	43.726	148.56	-1146.5	42.685	119.23	-1121.1	49.03	236.73	-1061.4	60.263	190.24	-1403.6	1552.8	252.03	-1484.5	1293.9	240.33
63	0.25833	-1213.3	1275.6	244.6	-1341.7	1506.8	421.5	-1356.7	1488.3	71.998	-1297.8	1831.1	229.16	-1244.2	987.59	388.21	NaN	NaN	NaN	NaN	NaN	NaN	-1447.5	1037.2	198.08	-1344	904.59	443.61	-1338.2	929.96	67.099	-1337	1086.5	427.5	-1337.9	1091.8	92.248	-1472.8	991.57	236.69	-1301.8	645.1	432.12	-1214.1	571.4	406.42	-1289.7	555.8	417.97	-1220.4	681.42	425.92	-1271.8	490.23	409.74	-1280.3	491.74	278	-1479.3	397.49	398.77	-1496.7	292.15	369.05	-1532.1	352.89	385.42	NaN	NaN	NaN	-1620.1	273.95	367.77	-1585.7	256.4	284.75	-1676.2	301.21	305.78	-1687.8	275.08	274.99	-1705.5	282.42	336.29	-1621.9	143.67	403.41	-1577.3	109.38	293.24	-1525.8	75.031	347.04	-1309.4	689.39	79.329	-1211.5	610.79	91.43	-1284.3	604.91	95.977	-1241.6	694.48	72.134	-1227.6	517.27	108.36	-1231.2	509.3	231.32	-1304.8	336	105.56	-1235.4	250.35	114.4	-1298.5	257.94	114.97	-1243.6	326.19	105.26	-1261.8	100.47	134.82	-1259.7	110.41	226.25	-1336.2	70.796	176.25	-1331.7	47.029	210.04	-1331.8	43.927	148.62	-1146.5	42.704	119.25	-1121	48.78	236.78	-1061.3	59.972	190.24	-1398	1553.8	251.81	-1479.1	1294.9	239.96
64	0.2625	-1207.8	1276.5	244.71	-1336.4	1507.7	421.35	-1350.9	1489.3	71.884	-1292	1832	229.13	-1238.5	988.75	387.97	NaN	NaN	NaN	NaN	NaN	NaN	-1442.1	1038.2	198.34	-1338.1	905.81	443.74	-1333.6	930.66	67.211	-1331.5	1087.6	427.43	-1332.6	1092.7	92.188	-1467.5	992.55	237.01	-1293	646.48	432.39	-1204.7	573.81	406.26	-1279.8	557.27	418.22	-1212.1	683.75	425.95	-1261.4	491.98	409.7	-1270.1	493.52	278.04	-1468.1	397.27	398.46	-1484	291.9	368.73	-1520.4	352.08	385.14	NaN	NaN	NaN	-1607.4	272.1	367.58	-1572.9	254.8	284.53	-1664.1	298.27	305.41	-1675.3	271.77	274.64	-1693.1	279.25	335.94	-1607.1	142.1	403.79	-1562.3	107.95	293.72	-1510.4	74.548	347.79	-1306.5	690.03	79.485	-1209.1	610.66	91.429	-1282	605.36	96.042	-1238.7	694.57	72.164	-1226	517.25	108.42	-1229.5	509.31	231.38	-1304.2	336.2	105.89	-1234.9	250.35	114.45	-1297.7	258.31	115.07	-1242.9	326.23	105.34	-1261.7	100.63	135.03	-1259.6	110.45	226.44	-1336.1	70.942	176.38	-1331.6	47.113	210.12	-1331.7	44.124	148.69	-1146.4	42.722	119.27	-1120.9	48.547	236.83	-1061.2	59.701	190.25	-1392.3	1554.7	251.6	-1473.7	1295.8	239.6
